<?xml version="1.0" encoding="UTF-8" standalone="no"?>
<!DOCTYPE svg PUBLIC "-//W3C//DTD SVG 1.1//EN" "http://www.w3.org/Graphics/SVG/1.1/DTD/svg11.dtd">
<svg width="100%" height="100%" viewBox="0 0 698 249" version="1.1" xmlns="http://www.w3.org/2000/svg" xmlns:xlink="http://www.w3.org/1999/xlink" xml:space="preserve" xmlns:serif="http://www.serif.com/" style="fill-rule:evenodd;clip-rule:evenodd;stroke-linejoin:round;stroke-miterlimit:2;">
    <g transform="matrix(1,0,0,1,-252.609,-101.284)">
        <path d="M542.109,265.709C519.303,269.94 501.858,292.787 501.858,320.3C501.858,323.506 502.095,326.649 502.55,329.707C486.961,340.986 466.972,347.619 442.172,347.661L349.534,348.041C341.998,346.734 340.193,341.794 340.073,335.787L340.045,112.049C339.872,106.34 345.42,101.24 351.277,101.351L442.989,101.499C516.453,102.277 546.898,155.278 546.59,226.099C546.53,239.803 545.07,253.164 542.109,265.709ZM398.251,150.719L398.24,298.757L437.191,298.659C463.477,298.525 489.072,276.229 488.639,226.944C488.19,175.717 466.563,150.514 436.997,150.5L398.251,150.719Z" style="fill:rgb(46,63,81);"/>
        <g transform="matrix(1,0,0,1,1.79557,-1.85807)">
            <circle cx="558.693" cy="323.385" r="27.852" style="fill:rgb(73,186,118);"/>
        </g>
        <g transform="matrix(1.02037,0,0,1.09778,-6.3336,-21.5746)">
            <path d="M310.997,125.212C310.997,117.873 304.587,111.915 296.692,111.915L268.08,111.915C260.185,111.915 253.775,117.873 253.775,125.212L253.775,324.413C253.775,331.752 260.185,337.71 268.08,337.71L296.692,337.71C304.587,337.71 310.997,331.752 310.997,324.413L310.997,125.212Z" style="fill:rgb(46,63,81);"/>
        </g>
        <path d="M669.71,229.483C681.324,213.503 695.093,202.512 713.253,201.697C727.941,201.038 740.512,211.403 741.093,231.325C751.583,215.674 765.38,202.65 787.416,202.476C802.949,202.354 815.042,211.723 815.127,231.714C815.259,262.928 797.142,288.707 800.349,318.918C800.919,324.28 804.592,327.021 809.635,325.164C813.84,323.616 817.653,321.195 820.936,317.592C803.759,263.922 843.813,203.582 893.756,202.339C911.406,201.899 931.141,216.048 930.353,230.514C927.995,273.83 889.705,279.569 853.137,285.975C853.196,306.699 856.396,326.83 883.649,328.529C902.366,329.696 925.029,311.767 935.171,287.071C937.991,280.204 953.097,284.455 949.126,293.855C935.883,325.203 914.971,347.307 873.432,349.762C853.205,350.958 841.168,342.424 829.9,331.841C821.347,339.949 811.689,346.476 800.973,347.906C794.738,348.738 788.608,348.6 782.565,347.646C776.204,346.642 771.646,341.856 768.963,335.908C764.634,326.314 765.09,315.874 766.738,305.182C769.557,286.893 773.727,269.011 778.429,251.289C781.953,238.009 779.087,227.413 774.503,227.386C761.907,227.312 751.605,240.087 743.062,258.981C732.56,282.21 727.566,309.496 722.604,336.276C721.441,342.549 716.635,347.556 710.929,347.363L689.236,347.722C686.679,348.02 686.584,345.473 686.952,342.054C690.155,312.25 699.791,283.547 707.355,254.038C710.514,241.71 707.091,228.28 702.449,227.436C690.828,225.324 675.961,243.734 669.034,259.985C658.484,284.735 653.49,310.253 649.835,335.987C648.761,343.548 642.328,348.308 634.735,348.05L619.435,348.448C614.685,347.537 613.862,343.538 614.568,336.772C618.02,303.693 632.016,270.41 634.343,236.715L635.299,216.358C632.345,209.337 637.272,204.209 644.728,204.101L659.448,204.11C663.932,204.399 668.684,210.946 669.082,214.231L669.71,229.483ZM854.961,268.83C873.378,267.891 887.921,263.545 893.332,242.627C894.703,237.326 895.702,230.848 893.56,226.484C891.6,222.491 888.769,220.79 885.979,221.08C870.22,222.719 856.821,253.507 854.961,268.83Z" style="fill:rgb(46,63,81);"/>
    </g>
</svg>
